<svg width="73" height="42" viewBox="0 0 73 42" fill="none" xmlns="http://www.w3.org/2000/svg">
<path d="M34.6029 8.00001C34.6029 7.44772 35.0136 7.00001 35.5202 7.00001H39.189C39.6956 7.00001 40.1063 7.44772 40.1063 8.00001V11C40.1063 11.5523 39.6956 12 39.189 12H35.5202C35.0136 12 34.6029 11.5523 34.6029 11V8.00001Z" fill="url(#paint0_linear_25_46)"/>
<path d="M69.2608 40.6426C71.3923 40.6843 73.1724 38.8293 72.9867 36.514C72.2583 27.4337 68.6999 18.8485 62.8418 12.2281C56.086 4.59318 46.825 0.19692 37.0961 0.00645539C27.3672 -0.184009 17.9674 3.84692 10.9645 11.2125C4.89213 17.5993 1.05335 26.0397 0.0264478 35.0856C-0.235403 37.3922 1.48244 39.3157 3.61392 39.3574C5.7454 39.3991 7.47798 37.5402 7.79907 35.2425C8.75068 28.4327 11.7267 22.1058 16.3244 17.2699C21.8538 11.4542 29.2757 8.27148 36.9575 8.42187C44.6392 8.57225 51.9515 12.0435 57.2858 18.0718C61.7214 23.0845 64.4871 29.5239 65.2139 36.3665C65.4591 38.6753 67.1294 40.6009 69.2608 40.6426Z" fill="url(#paint1_linear_25_46)"/>
<path d="M41.9407 37C41.9407 39.7614 39.8874 42 37.3546 42C34.8218 42 32.7685 39.7614 32.7685 37C32.7685 34.2386 34.8218 32 37.3546 32C39.8874 32 41.9407 34.2386 41.9407 37Z" fill="url(#paint2_linear_25_46)"/>
<path d="M34.6029 24C34.6029 23.4477 35.0136 23 35.5202 23H39.189C39.6956 23 40.1063 23.4477 40.1063 24V36C40.1063 36.5523 39.6956 37 39.189 37H35.5202C35.0136 37 34.6029 36.5523 34.6029 36V24Z" fill="url(#paint3_linear_25_46)"/>
<path d="M12.3751 21.2391C11.987 20.8841 11.9364 20.2533 12.262 19.8302L14.6203 16.766C14.946 16.343 15.5245 16.2878 15.9126 16.6428L18.0204 18.5712C18.4085 18.9262 18.4591 19.5569 18.1335 19.98L15.7752 23.0442C15.4496 23.4672 14.871 23.5224 14.483 23.1674L12.3751 21.2391Z" fill="url(#paint4_linear_25_46)"/>
<path d="M56.675 16.6428C57.0631 16.2878 57.6416 16.343 57.9673 16.766L60.3256 19.8302C60.6512 20.2533 60.6006 20.8841 60.2125 21.2391L58.1046 23.1674C57.7166 23.5224 57.138 23.4672 56.8124 23.0442L54.4541 19.98C54.1285 19.5569 54.1791 18.9262 54.5672 18.5712L56.675 16.6428Z" fill="url(#paint5_linear_25_46)"/>
<defs>
<linearGradient id="paint0_linear_25_46" x1="-3.7146" y1="20.3967" x2="69.2854" y2="20.3967" gradientUnits="userSpaceOnUse">
<stop offset="0.015" stop-color="#1A237E"/>
<stop offset="1" stop-color="#03A9F4"/>
</linearGradient>
<linearGradient id="paint1_linear_25_46" x1="-3.7146" y1="20.3967" x2="69.2854" y2="20.3967" gradientUnits="userSpaceOnUse">
<stop offset="0.015" stop-color="#1A237E"/>
<stop offset="1" stop-color="#03A9F4"/>
</linearGradient>
<linearGradient id="paint2_linear_25_46" x1="-3.7146" y1="20.3967" x2="69.2854" y2="20.3967" gradientUnits="userSpaceOnUse">
<stop offset="0.015" stop-color="#1A237E"/>
<stop offset="1" stop-color="#03A9F4"/>
</linearGradient>
<linearGradient id="paint3_linear_25_46" x1="-3.7146" y1="20.3967" x2="69.2854" y2="20.3967" gradientUnits="userSpaceOnUse">
<stop offset="0.015" stop-color="#1A237E"/>
<stop offset="1" stop-color="#03A9F4"/>
</linearGradient>
<linearGradient id="paint4_linear_25_46" x1="-3.7146" y1="20.3967" x2="69.2854" y2="20.3967" gradientUnits="userSpaceOnUse">
<stop offset="0.015" stop-color="#1A237E"/>
<stop offset="1" stop-color="#03A9F4"/>
</linearGradient>
<linearGradient id="paint5_linear_25_46" x1="-3.7146" y1="20.3967" x2="69.2854" y2="20.3967" gradientUnits="userSpaceOnUse">
<stop offset="0.015" stop-color="#1A237E"/>
<stop offset="1" stop-color="#03A9F4"/>
</linearGradient>
</defs>
</svg>
