<svg width="283" height="75" viewBox="0 0 283 75" fill="none" xmlns="http://www.w3.org/2000/svg">
<path d="M102.721 53.0249C102.652 52.8094 102.56 52.6165 102.444 52.446C102.33 52.2732 102.194 52.1264 102.036 52.0057C101.877 51.8826 101.696 51.7891 101.492 51.7251C101.291 51.6612 101.07 51.6293 100.828 51.6293C100.419 51.6293 100.049 51.7346 99.7202 51.9453C99.3911 52.156 99.1307 52.465 98.9389 52.8722C98.7495 53.277 98.6548 53.773 98.6548 54.3601C98.6548 54.9496 98.7507 55.4479 98.9425 55.8551C99.1342 56.2623 99.397 56.5713 99.7308 56.782C100.065 56.9927 100.445 57.098 100.871 57.098C101.266 57.098 101.611 57.0175 101.904 56.8565C102.2 56.6955 102.429 56.4683 102.589 56.1747C102.753 55.8788 102.835 55.5308 102.835 55.1307L103.119 55.1839H101.038V54.2784H103.896V55.1058C103.896 55.7166 103.766 56.2469 103.506 56.6967C103.248 57.1442 102.89 57.4898 102.433 57.7337C101.979 57.9775 101.458 58.0994 100.871 58.0994C100.213 58.0994 99.6349 57.9479 99.1378 57.6449C98.643 57.3419 98.2571 56.9122 97.9801 56.3558C97.7031 55.7971 97.5646 55.1342 97.5646 54.3672C97.5646 53.7872 97.6451 53.2663 97.8061 52.8047C97.9671 52.343 98.1932 51.9512 98.4844 51.6293C98.7779 51.3049 99.1224 51.0575 99.5178 50.8871C99.9155 50.7143 100.35 50.6278 100.821 50.6278C101.214 50.6278 101.58 50.6858 101.918 50.8018C102.259 50.9179 102.562 51.0824 102.827 51.2955C103.095 51.5085 103.316 51.7618 103.491 52.0554C103.667 52.3466 103.785 52.6697 103.847 53.0249H102.721ZM105.289 58V50.7273H109.849V51.6719H106.387V53.8878H109.611V54.8288H106.387V57.0554H109.892V58H105.289ZM110.956 51.6719V50.7273H116.585V51.6719H114.315V58H113.222V51.6719H110.956ZM121.572 50.7273V58H120.475V50.7273H121.572ZM122.811 51.6719V50.7273H128.44V51.6719H126.171V58H125.077V51.6719H122.811ZM134.685 58H132.33V50.7273H134.759C135.472 50.7273 136.084 50.8729 136.595 51.1641C137.107 51.4529 137.498 51.8684 137.771 52.4105C138.045 52.9503 138.183 53.5978 138.183 54.353C138.183 55.1106 138.044 55.7616 137.767 56.3061C137.492 56.8506 137.095 57.2696 136.574 57.5632C136.053 57.8544 135.423 58 134.685 58ZM133.428 57.0412H134.624C135.178 57.0412 135.639 56.937 136.006 56.7287C136.373 56.518 136.647 56.2138 136.83 55.8161C137.012 55.416 137.103 54.9283 137.103 54.353C137.103 53.7824 137.012 53.2983 136.83 52.9006C136.65 52.5028 136.381 52.201 136.023 51.995C135.666 51.7891 135.222 51.6861 134.692 51.6861H133.428V57.0412ZM145.865 54.3636C145.865 55.1402 145.722 55.8078 145.438 56.3665C145.154 56.9228 144.765 57.3513 144.27 57.652C143.778 57.9503 143.218 58.0994 142.59 58.0994C141.961 58.0994 141.398 57.9503 140.904 57.652C140.411 57.3513 140.023 56.9216 139.739 56.3629C139.455 55.8042 139.313 55.1378 139.313 54.3636C139.313 53.5871 139.455 52.9207 139.739 52.3643C140.023 51.8056 140.411 51.3771 140.904 51.0788C141.398 50.7782 141.961 50.6278 142.59 50.6278C143.218 50.6278 143.778 50.7782 144.27 51.0788C144.765 51.3771 145.154 51.8056 145.438 52.3643C145.722 52.9207 145.865 53.5871 145.865 54.3636ZM144.778 54.3636C144.778 53.7718 144.682 53.2734 144.49 52.8686C144.301 52.4614 144.04 52.1536 143.709 51.9453C143.38 51.7346 143.007 51.6293 142.59 51.6293C142.171 51.6293 141.797 51.7346 141.468 51.9453C141.139 52.1536 140.879 52.4614 140.687 52.8686C140.498 53.2734 140.403 53.7718 140.403 54.3636C140.403 54.9555 140.498 55.455 140.687 55.8622C140.879 56.267 141.139 56.5748 141.468 56.7855C141.797 56.9938 142.171 57.098 142.59 57.098C143.007 57.098 143.38 56.9938 143.709 56.7855C144.04 56.5748 144.301 56.267 144.49 55.8622C144.682 55.455 144.778 54.9555 144.778 54.3636ZM153.103 50.7273V58H152.094L148.397 52.6662H148.33V58H147.233V50.7273H148.248L151.949 56.0682H152.016V50.7273H153.103ZM154.703 58V50.7273H159.263V51.6719H155.801V53.8878H159.025V54.8288H155.801V57.0554H159.306V58H154.703ZM167.342 52.6378C167.304 52.3016 167.148 52.0412 166.873 51.8565C166.598 51.6695 166.253 51.576 165.836 51.576C165.538 51.576 165.28 51.6233 165.062 51.718C164.844 51.8104 164.675 51.9382 164.554 52.1016C164.436 52.2625 164.377 52.446 164.377 52.652C164.377 52.8248 164.417 52.974 164.497 53.0994C164.58 53.2249 164.688 53.3303 164.82 53.4155C164.955 53.4983 165.1 53.5682 165.254 53.625C165.408 53.6795 165.556 53.7244 165.698 53.7599L166.408 53.9446C166.64 54.0014 166.878 54.0784 167.122 54.1754C167.365 54.2725 167.592 54.4003 167.8 54.5589C168.008 54.7176 168.176 54.9141 168.304 55.1484C168.434 55.3828 168.499 55.6634 168.499 55.9901C168.499 56.402 168.393 56.7678 168.18 57.0874C167.969 57.407 167.663 57.6591 167.26 57.8438C166.86 58.0284 166.376 58.1207 165.808 58.1207C165.263 58.1207 164.792 58.0343 164.394 57.8615C163.997 57.6887 163.685 57.4437 163.46 57.1264C163.235 56.8068 163.111 56.428 163.088 55.9901H164.188C164.21 56.2528 164.295 56.4718 164.444 56.647C164.596 56.8198 164.789 56.9489 165.023 57.0341C165.26 57.117 165.519 57.1584 165.801 57.1584C166.111 57.1584 166.387 57.1098 166.628 57.0128C166.872 56.9134 167.064 56.776 167.203 56.6009C167.343 56.4233 167.413 56.2161 167.413 55.9794C167.413 55.764 167.351 55.5876 167.228 55.4503C167.107 55.313 166.943 55.1993 166.735 55.1094C166.529 55.0194 166.295 54.9401 166.035 54.8714L165.176 54.6371C164.593 54.4785 164.132 54.2453 163.791 53.9375C163.452 53.6297 163.283 53.2225 163.283 52.7159C163.283 52.2969 163.396 51.9311 163.624 51.6186C163.851 51.3061 164.159 51.0634 164.547 50.8906C164.935 50.7154 165.373 50.6278 165.861 50.6278C166.353 50.6278 166.788 50.7143 167.164 50.8871C167.543 51.0599 167.841 51.2978 168.059 51.6009C168.277 51.9015 168.391 52.2472 168.4 52.6378H167.342ZM171.235 58L169.218 50.7273H170.372L171.789 56.3594H171.856L173.33 50.7273H174.473L175.947 56.3629H176.015L177.428 50.7273H178.586L176.565 58H175.461L173.93 52.5526H173.873L172.343 58H171.235ZM180.683 50.7273V58H179.586V50.7273H180.683ZM182.281 58V50.7273H186.791V51.6719H183.379V53.8878H186.468V54.8288H183.379V58H182.281ZM187.782 51.6719V50.7273H193.411V51.6719H191.142V58H190.048V51.6719H187.782ZM194.654 58V50.7273H195.752V57.0554H199.047V58H194.654ZM199.201 50.7273H200.447L202.347 54.0334H202.425L204.325 50.7273H205.572L202.933 55.1449V58H201.839V55.1449L199.201 50.7273Z" fill="black"/>
<path d="M108.841 40H98.5284V10.9091H108.926C111.852 10.9091 114.371 11.4915 116.483 12.6562C118.595 13.8116 120.219 15.4735 121.355 17.642C122.501 19.8106 123.074 22.4053 123.074 25.4261C123.074 28.4564 122.501 31.0606 121.355 33.2386C120.219 35.4167 118.585 37.0881 116.455 38.2528C114.333 39.4176 111.795 40 108.841 40ZM104.679 34.7301H108.585C110.403 34.7301 111.933 34.4081 113.173 33.7642C114.423 33.1108 115.361 32.1023 115.986 30.7386C116.62 29.3655 116.938 27.5947 116.938 25.4261C116.938 23.2765 116.62 21.5199 115.986 20.1562C115.361 18.7926 114.428 17.7888 113.188 17.1449C111.947 16.5009 110.418 16.179 108.599 16.179H104.679V34.7301ZM154.363 25.4545C154.363 28.6269 153.762 31.3258 152.559 33.5511C151.366 35.7765 149.737 37.4763 147.673 38.6506C145.618 39.8153 143.307 40.3977 140.741 40.3977C138.156 40.3977 135.835 39.8106 133.781 38.6364C131.726 37.4621 130.102 35.7623 128.908 33.5369C127.715 31.3116 127.119 28.6174 127.119 25.4545C127.119 22.2822 127.715 19.5833 128.908 17.358C130.102 15.1326 131.726 13.4375 133.781 12.2727C135.835 11.0985 138.156 10.5114 140.741 10.5114C143.307 10.5114 145.618 11.0985 147.673 12.2727C149.737 13.4375 151.366 15.1326 152.559 17.358C153.762 19.5833 154.363 22.2822 154.363 25.4545ZM148.127 25.4545C148.127 23.3996 147.819 21.6667 147.204 20.2557C146.598 18.8447 145.741 17.7746 144.633 17.0455C143.525 16.3163 142.228 15.9517 140.741 15.9517C139.254 15.9517 137.957 16.3163 136.849 17.0455C135.741 17.7746 134.879 18.8447 134.263 20.2557C133.657 21.6667 133.354 23.3996 133.354 25.4545C133.354 27.5095 133.657 29.2424 134.263 30.6534C134.879 32.0644 135.741 33.1345 136.849 33.8636C137.957 34.5928 139.254 34.9574 140.741 34.9574C142.228 34.9574 143.525 34.5928 144.633 33.8636C145.741 33.1345 146.598 32.0644 147.204 30.6534C147.819 29.2424 148.127 27.5095 148.127 25.4545ZM156.483 15.9801V10.9091H180.375V15.9801H171.469V40H165.389V15.9801H156.483ZM187.449 40.4119C186.057 40.4119 184.816 40.1705 183.727 39.6875C182.638 39.1951 181.777 38.4706 181.142 37.5142C180.517 36.5483 180.205 35.3456 180.205 33.9062C180.205 32.6941 180.427 31.6761 180.872 30.8523C181.317 30.0284 181.923 29.3655 182.69 28.8636C183.457 28.3617 184.329 27.983 185.304 27.7273C186.289 27.4716 187.321 27.2917 188.401 27.1875C189.67 27.0549 190.692 26.9318 191.469 26.8182C192.245 26.6951 192.809 26.5152 193.159 26.2784C193.509 26.0417 193.685 25.6913 193.685 25.2273V25.142C193.685 24.2424 193.401 23.5464 192.832 23.054C192.274 22.5616 191.478 22.3153 190.446 22.3153C189.357 22.3153 188.491 22.5568 187.847 23.0398C187.203 23.5133 186.777 24.1098 186.568 24.8295L180.972 24.375C181.256 23.0492 181.814 21.9034 182.648 20.9375C183.481 19.9621 184.556 19.214 185.872 18.6932C187.198 18.1629 188.732 17.8977 190.474 17.8977C191.687 17.8977 192.847 18.0398 193.955 18.3239C195.072 18.608 196.062 19.0483 196.923 19.6449C197.795 20.2415 198.481 21.0085 198.983 21.946C199.485 22.8741 199.736 23.9867 199.736 25.2841V40H193.997V36.9744H193.827C193.476 37.6562 193.008 38.2576 192.42 38.7784C191.833 39.2898 191.128 39.6922 190.304 39.9858C189.48 40.2699 188.528 40.4119 187.449 40.4119ZM189.182 36.2358C190.072 36.2358 190.858 36.0606 191.54 35.7102C192.222 35.3504 192.757 34.8674 193.145 34.2614C193.533 33.6553 193.727 32.9687 193.727 32.2017V29.8864C193.538 30.0095 193.277 30.1231 192.946 30.2273C192.624 30.322 192.259 30.4119 191.852 30.4972C191.445 30.5729 191.038 30.6439 190.631 30.7102C190.223 30.767 189.854 30.8191 189.523 30.8665C188.813 30.9706 188.192 31.1364 187.662 31.3636C187.132 31.5909 186.72 31.8987 186.426 32.2869C186.133 32.6657 185.986 33.1392 185.986 33.7074C185.986 34.5312 186.284 35.161 186.881 35.5966C187.487 36.0227 188.254 36.2358 189.182 36.2358ZM222.584 24.4034L217.044 24.7443C216.949 24.2708 216.746 23.8447 216.433 23.4659C216.121 23.0777 215.709 22.7699 215.197 22.5426C214.696 22.3059 214.094 22.1875 213.393 22.1875C212.456 22.1875 211.665 22.3864 211.021 22.7841C210.377 23.1723 210.055 23.6932 210.055 24.3466C210.055 24.8674 210.264 25.3078 210.68 25.6676C211.097 26.0275 211.812 26.3163 212.825 26.5341L216.774 27.3295C218.895 27.7652 220.477 28.4659 221.518 29.4318C222.56 30.3977 223.081 31.6667 223.081 33.2386C223.081 34.6686 222.66 35.9233 221.817 37.0028C220.983 38.0824 219.838 38.9252 218.379 39.5312C216.93 40.1278 215.259 40.4261 213.365 40.4261C210.477 40.4261 208.176 39.8248 206.462 38.6222C204.757 37.41 203.758 35.7623 203.464 33.679L209.416 33.3665C209.596 34.2472 210.032 34.9195 210.723 35.3835C211.414 35.8381 212.3 36.0653 213.379 36.0653C214.44 36.0653 215.292 35.8617 215.936 35.4545C216.589 35.0379 216.921 34.5028 216.93 33.8494C216.921 33.3002 216.689 32.8504 216.234 32.5C215.78 32.1402 215.079 31.8655 214.132 31.6761L210.354 30.9233C208.223 30.4972 206.637 29.7585 205.595 28.7074C204.563 27.6562 204.047 26.3163 204.047 24.6875C204.047 23.286 204.426 22.0786 205.183 21.0653C205.95 20.0521 207.025 19.2708 208.408 18.7216C209.8 18.1723 211.429 17.8977 213.294 17.8977C216.05 17.8977 218.218 18.4801 219.8 19.6449C221.391 20.8097 222.319 22.3958 222.584 24.4034ZM232.374 33.7216L232.388 26.4631H233.269L240.258 18.1818H247.204L237.815 29.1477H236.38L232.374 33.7216ZM226.891 40V10.9091H232.942V40H226.891ZM240.528 40L234.107 30.4972L238.141 26.2216L247.616 40H240.528ZM256.224 10.9091V40H250.173V10.9091H256.224ZM264.807 48.1818C264.04 48.1818 263.32 48.1203 262.648 47.9972C261.985 47.8835 261.436 47.7367 261 47.5568L262.364 43.0398C263.074 43.2576 263.713 43.3759 264.281 43.3949C264.859 43.4138 265.356 43.2813 265.773 42.9972C266.199 42.7131 266.545 42.2301 266.81 41.5483L267.165 40.625L259.338 18.1818H265.702L270.219 34.2045H270.446L275.006 18.1818H281.412L272.932 42.358C272.525 43.5322 271.971 44.5549 271.27 45.4261C270.579 46.3068 269.703 46.9839 268.642 47.4574C267.581 47.9403 266.303 48.1818 264.807 48.1818Z" fill="url(#paint0_linear_25_56)"/>
<path d="M34.6029 22C34.6029 21.4477 35.0136 21 35.5202 21H39.189C39.6956 21 40.1063 21.4477 40.1063 22V25C40.1063 25.5523 39.6956 26 39.189 26H35.5202C35.0136 26 34.6029 25.5523 34.6029 25V22Z" fill="url(#paint1_linear_25_56)"/>
<path d="M69.2608 54.6426C71.3923 54.6843 73.1724 52.8293 72.9867 50.514C72.2583 41.4337 68.6999 32.8485 62.8418 26.2281C56.086 18.5932 46.825 14.1969 37.0961 14.0065C27.3672 13.816 17.9674 17.8469 10.9645 25.2125C4.89213 31.5993 1.05335 40.0397 0.0264478 49.0856C-0.235403 51.3922 1.48244 53.3157 3.61392 53.3574C5.7454 53.3991 7.47798 51.5402 7.79907 49.2425C8.75068 42.4327 11.7267 36.1058 16.3244 31.2699C21.8538 25.4542 29.2757 22.2715 36.9575 22.4219C44.6392 22.5723 51.9515 26.0435 57.2858 32.0718C61.7214 37.0845 64.4871 43.5239 65.2139 50.3665C65.4591 52.6753 67.1294 54.6009 69.2608 54.6426Z" fill="url(#paint2_linear_25_56)"/>
<path d="M41.9407 51C41.9407 53.7614 39.8874 56 37.3546 56C34.8218 56 32.7685 53.7614 32.7685 51C32.7685 48.2386 34.8218 46 37.3546 46C39.8874 46 41.9407 48.2386 41.9407 51Z" fill="url(#paint3_linear_25_56)"/>
<path d="M34.6029 38C34.6029 37.4477 35.0136 37 35.5202 37H39.189C39.6956 37 40.1063 37.4477 40.1063 38V50C40.1063 50.5523 39.6956 51 39.189 51H35.5202C35.0136 51 34.6029 50.5523 34.6029 50V38Z" fill="url(#paint4_linear_25_56)"/>
<path d="M12.3751 35.2391C11.987 34.8841 11.9364 34.2533 12.262 33.8302L14.6203 30.766C14.946 30.343 15.5245 30.2878 15.9126 30.6428L18.0204 32.5712C18.4085 32.9262 18.4591 33.5569 18.1335 33.98L15.7752 37.0442C15.4496 37.4672 14.871 37.5224 14.483 37.1674L12.3751 35.2391Z" fill="url(#paint5_linear_25_56)"/>
<path d="M56.675 30.6428C57.0631 30.2878 57.6416 30.343 57.9673 30.766L60.3256 33.8302C60.6512 34.2533 60.6006 34.8841 60.2125 35.2391L58.1046 37.1674C57.7166 37.5224 57.138 37.4672 56.8124 37.0442L54.4541 33.98C54.1285 33.5569 54.1791 32.9262 54.5672 32.5712L56.675 30.6428Z" fill="url(#paint6_linear_25_56)"/>
<line x1="85.5" x2="85.5" y2="75" stroke="black"/>
<defs>
<linearGradient id="paint0_linear_25_56" x1="86.4845" y1="24.569" x2="273.485" y2="24.569" gradientUnits="userSpaceOnUse">
<stop offset="0.015" stop-color="#1A237E"/>
<stop offset="1" stop-color="#03A9F4"/>
</linearGradient>
<linearGradient id="paint1_linear_25_56" x1="-3.7146" y1="34.3967" x2="69.2854" y2="34.3967" gradientUnits="userSpaceOnUse">
<stop offset="0.015" stop-color="#1A237E"/>
<stop offset="1" stop-color="#03A9F4"/>
</linearGradient>
<linearGradient id="paint2_linear_25_56" x1="-3.7146" y1="34.3967" x2="69.2854" y2="34.3967" gradientUnits="userSpaceOnUse">
<stop offset="0.015" stop-color="#1A237E"/>
<stop offset="1" stop-color="#03A9F4"/>
</linearGradient>
<linearGradient id="paint3_linear_25_56" x1="-3.7146" y1="34.3967" x2="69.2854" y2="34.3967" gradientUnits="userSpaceOnUse">
<stop offset="0.015" stop-color="#1A237E"/>
<stop offset="1" stop-color="#03A9F4"/>
</linearGradient>
<linearGradient id="paint4_linear_25_56" x1="-3.7146" y1="34.3967" x2="69.2854" y2="34.3967" gradientUnits="userSpaceOnUse">
<stop offset="0.015" stop-color="#1A237E"/>
<stop offset="1" stop-color="#03A9F4"/>
</linearGradient>
<linearGradient id="paint5_linear_25_56" x1="-3.7146" y1="34.3967" x2="69.2854" y2="34.3967" gradientUnits="userSpaceOnUse">
<stop offset="0.015" stop-color="#1A237E"/>
<stop offset="1" stop-color="#03A9F4"/>
</linearGradient>
<linearGradient id="paint6_linear_25_56" x1="-3.7146" y1="34.3967" x2="69.2854" y2="34.3967" gradientUnits="userSpaceOnUse">
<stop offset="0.015" stop-color="#1A237E"/>
<stop offset="1" stop-color="#03A9F4"/>
</linearGradient>
</defs>
</svg>
