<svg width="256" height="75" viewBox="0 0 256 75" fill="none" xmlns="http://www.w3.org/2000/svg">
<path d="M100.452 49.8906V57H99.5244V49.8906H100.452ZM102.737 49.8906V50.6621H97.2441V49.8906H102.737ZM106.033 50.5205L103.68 57H102.718L105.428 49.8906H106.048L106.033 50.5205ZM108.006 57L105.647 50.5205L105.633 49.8906H106.253L108.973 57H108.006ZM107.884 54.3682V55.1396H103.89V54.3682H107.884ZM113.714 55.2031C113.714 55.0371 113.688 54.8906 113.636 54.7637C113.587 54.6335 113.499 54.5163 113.372 54.4121C113.248 54.3079 113.076 54.2087 112.854 54.1143C112.636 54.0199 112.36 53.9238 112.024 53.8262C111.673 53.722 111.355 53.6064 111.072 53.4795C110.789 53.3493 110.547 53.2012 110.345 53.0352C110.143 52.8691 109.988 52.6787 109.881 52.4639C109.773 52.249 109.72 52.0033 109.72 51.7266C109.72 51.4499 109.777 51.1943 109.891 50.96C110.005 50.7256 110.167 50.5221 110.379 50.3496C110.594 50.1738 110.849 50.0371 111.146 49.9395C111.442 49.8418 111.772 49.793 112.137 49.793C112.671 49.793 113.123 49.8955 113.494 50.1006C113.868 50.3024 114.153 50.5677 114.349 50.8965C114.544 51.222 114.642 51.5703 114.642 51.9414H113.704C113.704 51.6745 113.647 51.4385 113.533 51.2334C113.419 51.0251 113.247 50.8623 113.016 50.7451C112.785 50.6247 112.492 50.5645 112.137 50.5645C111.801 50.5645 111.525 50.6149 111.307 50.7158C111.089 50.8167 110.926 50.9535 110.818 51.126C110.714 51.2985 110.662 51.4954 110.662 51.7168C110.662 51.8665 110.693 52.0033 110.755 52.127C110.82 52.2474 110.919 52.3597 111.053 52.4639C111.189 52.568 111.362 52.6641 111.57 52.752C111.782 52.8398 112.034 52.9245 112.327 53.0059C112.731 53.1198 113.079 53.2467 113.372 53.3867C113.665 53.5267 113.906 53.6846 114.095 53.8604C114.287 54.0329 114.428 54.2298 114.52 54.4512C114.614 54.6693 114.661 54.9167 114.661 55.1934C114.661 55.4831 114.603 55.7451 114.485 55.9795C114.368 56.2139 114.201 56.4141 113.982 56.5801C113.764 56.7461 113.502 56.8747 113.196 56.9658C112.894 57.0537 112.555 57.0977 112.181 57.0977C111.852 57.0977 111.528 57.0521 111.209 56.9609C110.893 56.8698 110.605 56.7331 110.345 56.5508C110.088 56.3685 109.881 56.1439 109.725 55.877C109.572 55.6068 109.495 55.2943 109.495 54.9395H110.433C110.433 55.1836 110.48 55.3936 110.574 55.5693C110.669 55.7419 110.797 55.8851 110.96 55.999C111.126 56.113 111.313 56.1976 111.521 56.2529C111.733 56.305 111.953 56.3311 112.181 56.3311C112.509 56.3311 112.788 56.2855 113.016 56.1943C113.243 56.1032 113.416 55.973 113.533 55.8037C113.654 55.6344 113.714 55.4342 113.714 55.2031ZM116.805 49.8906V57H115.862V49.8906H116.805ZM121.097 49.8906L118.143 53.2061L116.482 54.9297L116.326 53.9238L117.576 52.5469L119.964 49.8906H121.097ZM120.188 57L117.557 53.5332L118.118 52.7861L121.312 57H120.188ZM125.931 55.2031C125.931 55.0371 125.905 54.8906 125.853 54.7637C125.804 54.6335 125.716 54.5163 125.589 54.4121C125.465 54.3079 125.293 54.2087 125.071 54.1143C124.853 54.0199 124.576 53.9238 124.241 53.8262C123.89 53.722 123.572 53.6064 123.289 53.4795C123.006 53.3493 122.763 53.2012 122.562 53.0352C122.36 52.8691 122.205 52.6787 122.098 52.4639C121.99 52.249 121.937 52.0033 121.937 51.7266C121.937 51.4499 121.993 51.1943 122.107 50.96C122.221 50.7256 122.384 50.5221 122.596 50.3496C122.811 50.1738 123.066 50.0371 123.362 49.9395C123.659 49.8418 123.989 49.793 124.354 49.793C124.887 49.793 125.34 49.8955 125.711 50.1006C126.085 50.3024 126.37 50.5677 126.565 50.8965C126.761 51.222 126.858 51.5703 126.858 51.9414H125.921C125.921 51.6745 125.864 51.4385 125.75 51.2334C125.636 51.0251 125.464 50.8623 125.232 50.7451C125.001 50.6247 124.708 50.5645 124.354 50.5645C124.018 50.5645 123.742 50.6149 123.523 50.7158C123.305 50.8167 123.143 50.9535 123.035 51.126C122.931 51.2985 122.879 51.4954 122.879 51.7168C122.879 51.8665 122.91 52.0033 122.972 52.127C123.037 52.2474 123.136 52.3597 123.27 52.4639C123.406 52.568 123.579 52.6641 123.787 52.752C123.999 52.8398 124.251 52.9245 124.544 53.0059C124.948 53.1198 125.296 53.2467 125.589 53.3867C125.882 53.5267 126.123 53.6846 126.312 53.8604C126.504 54.0329 126.645 54.2298 126.736 54.4512C126.831 54.6693 126.878 54.9167 126.878 55.1934C126.878 55.4831 126.819 55.7451 126.702 55.9795C126.585 56.2139 126.417 56.4141 126.199 56.5801C125.981 56.7461 125.719 56.8747 125.413 56.9658C125.11 57.0537 124.772 57.0977 124.397 57.0977C124.069 57.0977 123.745 57.0521 123.426 56.9609C123.11 56.8698 122.822 56.7331 122.562 56.5508C122.304 56.3685 122.098 56.1439 121.941 55.877C121.788 55.6068 121.712 55.2943 121.712 54.9395H122.649C122.649 55.1836 122.697 55.3936 122.791 55.5693C122.885 55.7419 123.014 55.8851 123.177 55.999C123.343 56.113 123.53 56.1976 123.738 56.2529C123.95 56.305 124.17 56.3311 124.397 56.3311C124.726 56.3311 125.005 56.2855 125.232 56.1943C125.46 56.1032 125.633 55.973 125.75 55.8037C125.87 55.6344 125.931 55.4342 125.931 55.2031ZM132.483 57H130.999L131.009 56.2334H132.483C132.991 56.2334 133.414 56.1276 133.753 55.916C134.091 55.7012 134.345 55.4017 134.515 55.0176C134.687 54.6302 134.773 54.1777 134.773 53.6602V53.2256C134.773 52.8187 134.725 52.4574 134.627 52.1416C134.529 51.8226 134.386 51.554 134.197 51.3359C134.008 51.1146 133.777 50.9469 133.504 50.833C133.234 50.7191 132.923 50.6621 132.571 50.6621H130.97V49.8906H132.571C133.037 49.8906 133.462 49.9688 133.846 50.125C134.23 50.278 134.56 50.501 134.837 50.7939C135.117 51.0837 135.332 51.4352 135.481 51.8486C135.631 52.2588 135.706 52.721 135.706 53.2354V53.6602C135.706 54.1745 135.631 54.6383 135.481 55.0518C135.332 55.4619 135.115 55.8118 134.832 56.1016C134.552 56.3913 134.214 56.6143 133.816 56.7705C133.423 56.9235 132.978 57 132.483 57ZM131.502 49.8906V57H130.56V49.8906H131.502ZM142.596 53.2207V53.6699C142.596 54.2038 142.529 54.6823 142.396 55.1055C142.262 55.5286 142.07 55.8883 141.819 56.1846C141.569 56.4808 141.268 56.707 140.916 56.8633C140.568 57.0195 140.177 57.0977 139.744 57.0977C139.324 57.0977 138.938 57.0195 138.587 56.8633C138.239 56.707 137.936 56.4808 137.679 56.1846C137.425 55.8883 137.228 55.5286 137.088 55.1055C136.948 54.6823 136.878 54.2038 136.878 53.6699V53.2207C136.878 52.6868 136.946 52.21 137.083 51.79C137.223 51.3669 137.42 51.0072 137.674 50.7109C137.928 50.4115 138.229 50.1836 138.577 50.0273C138.929 49.8711 139.314 49.793 139.734 49.793C140.167 49.793 140.558 49.8711 140.906 50.0273C141.258 50.1836 141.559 50.4115 141.81 50.7109C142.063 51.0072 142.257 51.3669 142.391 51.79C142.527 52.21 142.596 52.6868 142.596 53.2207ZM141.663 53.6699V53.2109C141.663 52.7878 141.619 52.4134 141.531 52.0879C141.447 51.7624 141.321 51.4889 141.155 51.2676C140.989 51.0462 140.786 50.8786 140.545 50.7646C140.307 50.6507 140.037 50.5938 139.734 50.5938C139.441 50.5938 139.176 50.6507 138.938 50.7646C138.704 50.8786 138.502 51.0462 138.333 51.2676C138.167 51.4889 138.038 51.7624 137.947 52.0879C137.856 52.4134 137.811 52.7878 137.811 53.2109V53.6699C137.811 54.0964 137.856 54.474 137.947 54.8027C138.038 55.1283 138.169 55.4033 138.338 55.6279C138.51 55.8493 138.714 56.0169 138.948 56.1309C139.186 56.2448 139.451 56.3018 139.744 56.3018C140.05 56.3018 140.322 56.2448 140.56 56.1309C140.797 56.0169 140.997 55.8493 141.16 55.6279C141.326 55.4033 141.451 55.1283 141.536 54.8027C141.621 54.474 141.663 54.0964 141.663 53.6699ZM149.476 49.8906V57H148.528L144.949 51.5166V57H144.007V49.8906H144.949L148.543 55.3887V49.8906H149.476ZM155.662 56.2334V57H151.897V56.2334H155.662ZM152.088 49.8906V57H151.146V49.8906H152.088ZM155.164 52.9473V53.7139H151.897V52.9473H155.164ZM155.613 49.8906V50.6621H151.897V49.8906H155.613ZM160.32 49.8906V57H159.378V49.8906H160.32ZM167.503 49.8906V57H166.556L162.977 51.5166V57H162.034V49.8906H162.977L166.57 55.3887V49.8906H167.503ZM174.285 50.5205L171.932 57H170.97L173.68 49.8906H174.3L174.285 50.5205ZM176.258 57L173.899 50.5205L173.885 49.8906H174.505L177.225 57H176.258ZM176.136 54.3682V55.1396H172.142V54.3682H176.136ZM183.089 49.8906V57H182.161V49.8906H183.089ZM185.374 49.8906V50.6621H179.881V49.8906H185.374ZM187.439 49.8906V57H186.497V49.8906H187.439ZM193.445 54.7393H194.383C194.334 55.1885 194.205 55.5905 193.997 55.9453C193.789 56.3001 193.494 56.5817 193.113 56.79C192.732 56.9951 192.257 57.0977 191.688 57.0977C191.271 57.0977 190.892 57.0195 190.55 56.8633C190.211 56.707 189.92 56.4857 189.676 56.1992C189.432 55.9095 189.243 55.5628 189.109 55.1592C188.979 54.7523 188.914 54.2998 188.914 53.8018V53.0938C188.914 52.5957 188.979 52.1449 189.109 51.7412C189.243 51.3343 189.433 50.986 189.681 50.6963C189.931 50.4066 190.232 50.1836 190.584 50.0273C190.936 49.8711 191.331 49.793 191.771 49.793C192.308 49.793 192.762 49.8939 193.133 50.0957C193.504 50.2975 193.792 50.5775 193.997 50.9355C194.205 51.2904 194.334 51.7021 194.383 52.1709H193.445C193.4 51.8389 193.315 51.554 193.191 51.3164C193.068 51.0755 192.892 50.89 192.664 50.7598C192.436 50.6296 192.138 50.5645 191.771 50.5645C191.455 50.5645 191.176 50.6247 190.936 50.7451C190.698 50.8656 190.498 51.0365 190.335 51.2578C190.175 51.4792 190.055 51.7445 189.974 52.0537C189.892 52.363 189.852 52.7064 189.852 53.084V53.8018C189.852 54.1501 189.887 54.4772 189.959 54.7832C190.034 55.0892 190.146 55.3577 190.296 55.5889C190.446 55.82 190.636 56.0023 190.867 56.1357C191.098 56.266 191.372 56.3311 191.688 56.3311C192.088 56.3311 192.407 56.2676 192.645 56.1406C192.882 56.0137 193.061 55.8314 193.182 55.5938C193.305 55.3561 193.393 55.0713 193.445 54.7393ZM196.609 49.8906V57H195.667V49.8906H196.609ZM200.901 49.8906L197.947 53.2061L196.287 54.9297L196.131 53.9238L197.381 52.5469L199.769 49.8906H200.901ZM199.993 57L197.361 53.5332L197.923 52.7861L201.116 57H199.993ZM204.573 49.8906V57H203.646V49.8906H204.573ZM206.858 49.8906V50.6621H201.365V49.8906H206.858ZM208.924 49.8906V57H207.981V49.8906H208.924ZM214.93 54.7393H215.867C215.818 55.1885 215.69 55.5905 215.481 55.9453C215.273 56.3001 214.979 56.5817 214.598 56.79C214.217 56.9951 213.742 57.0977 213.172 57.0977C212.755 57.0977 212.376 57.0195 212.034 56.8633C211.696 56.707 211.404 56.4857 211.16 56.1992C210.916 55.9095 210.727 55.5628 210.594 55.1592C210.464 54.7523 210.398 54.2998 210.398 53.8018V53.0938C210.398 52.5957 210.464 52.1449 210.594 51.7412C210.727 51.3343 210.918 50.986 211.165 50.6963C211.416 50.4066 211.717 50.1836 212.068 50.0273C212.42 49.8711 212.815 49.793 213.255 49.793C213.792 49.793 214.246 49.8939 214.617 50.0957C214.988 50.2975 215.276 50.5775 215.481 50.9355C215.69 51.2904 215.818 51.7021 215.867 52.1709H214.93C214.884 51.8389 214.799 51.554 214.676 51.3164C214.552 51.0755 214.376 50.89 214.148 50.7598C213.921 50.6296 213.623 50.5645 213.255 50.5645C212.939 50.5645 212.661 50.6247 212.42 50.7451C212.182 50.8656 211.982 51.0365 211.819 51.2578C211.66 51.4792 211.539 51.7445 211.458 52.0537C211.377 52.363 211.336 52.7064 211.336 53.084V53.8018C211.336 54.1501 211.372 54.4772 211.443 54.7832C211.518 55.0892 211.631 55.3577 211.78 55.5889C211.93 55.82 212.12 56.0023 212.352 56.1357C212.583 56.266 212.856 56.3311 213.172 56.3311C213.572 56.3311 213.891 56.2676 214.129 56.1406C214.367 56.0137 214.546 55.8314 214.666 55.5938C214.79 55.3561 214.878 55.0713 214.93 54.7393ZM218.094 49.8906V57H217.151V49.8906H218.094ZM222.386 49.8906L219.432 53.2061L217.771 54.9297L217.615 53.9238L218.865 52.5469L221.253 49.8906H222.386ZM221.478 57L218.846 53.5332L219.407 52.7861L222.601 57H221.478Z" fill="black"/>
<path d="M106 18.84L105.88 14.72H117.12C117.253 14.9067 117.373 15.1867 117.48 15.56C117.587 15.9067 117.64 16.28 117.64 16.68C117.64 17.3733 117.48 17.9067 117.16 18.28C116.84 18.6533 116.4 18.84 115.84 18.84H106ZM109.56 14.72L109.64 18.84H98.4C98.2667 18.6267 98.1467 18.3467 98.04 18C97.9333 17.6533 97.88 17.2667 97.88 16.84C97.88 16.12 98.04 15.5867 98.36 15.24C98.68 14.8933 99.12 14.72 99.68 14.72H109.56ZM105.2 17.76H110.24V38.92C110.027 39 109.693 39.0667 109.24 39.12C108.813 39.2 108.373 39.24 107.92 39.24C106.933 39.24 106.227 39.0667 105.8 38.72C105.4 38.3467 105.2 37.7333 105.2 36.88V17.76ZM121.683 22.96H126.723V38.92C126.509 39 126.189 39.0667 125.763 39.12C125.336 39.2 124.883 39.24 124.403 39.24C123.443 39.24 122.749 39.0667 122.323 38.72C121.896 38.3467 121.683 37.7333 121.683 36.88V22.96ZM126.723 28.8H121.683V14.72C121.896 14.6667 122.229 14.6 122.683 14.52C123.136 14.44 123.589 14.4 124.043 14.4C124.976 14.4 125.656 14.5733 126.083 14.92C126.509 15.24 126.723 15.8533 126.723 16.76V28.8ZM151.371 17.8C151.371 18.3067 151.224 18.76 150.931 19.16C150.664 19.5333 150.344 19.8267 149.971 20.04C149.304 19.5867 148.531 19.1733 147.651 18.8C146.771 18.4267 145.691 18.24 144.411 18.24C142.917 18.24 141.597 18.5733 140.451 19.24C139.331 19.88 138.451 20.8533 137.811 22.16C137.197 23.44 136.891 25.0133 136.891 26.88C136.891 29.7067 137.597 31.8533 139.011 33.32C140.424 34.76 142.304 35.48 144.651 35.48C145.904 35.48 146.984 35.3067 147.891 34.96C148.797 34.6133 149.584 34.2133 150.251 33.76C150.597 33.9733 150.891 34.2933 151.131 34.72C151.397 35.12 151.531 35.5733 151.531 36.08C151.531 36.5333 151.411 36.9467 151.171 37.32C150.957 37.6933 150.571 38.0267 150.011 38.32C149.451 38.64 148.677 38.9333 147.691 39.2C146.731 39.4667 145.517 39.6 144.051 39.6C141.757 39.6 139.664 39.1467 137.771 38.24C135.904 37.3067 134.424 35.9067 133.331 34.04C132.237 32.1467 131.691 29.76 131.691 26.88C131.691 24.08 132.237 21.7333 133.331 19.84C134.424 17.9467 135.891 16.52 137.731 15.56C139.571 14.5733 141.584 14.08 143.771 14.08C145.317 14.08 146.651 14.2533 147.771 14.6C148.917 14.9467 149.797 15.4 150.411 15.96C151.051 16.52 151.371 17.1333 151.371 17.8ZM159.214 26.28L164.454 25.2C166.907 27.7067 169.067 29.9467 170.934 31.92C172.8 33.8667 174.334 35.4267 175.534 36.6C175.534 37.4533 175.254 38.1333 174.694 38.64C174.16 39.12 173.534 39.36 172.814 39.36C172.04 39.36 171.387 39.16 170.854 38.76C170.347 38.36 169.84 37.8933 169.334 37.36L159.214 26.28ZM164.694 28.04L158.614 28L170.974 14.52C172.2 14.5467 173.094 14.8 173.654 15.28C174.214 15.76 174.494 16.3467 174.494 17.04C174.494 17.5467 174.36 18.0267 174.094 18.48C173.854 18.9333 173.454 19.4267 172.894 19.96L164.694 28.04ZM156.174 22.88H161.254V38.96C161.04 39.0133 160.707 39.08 160.254 39.16C159.827 39.24 159.374 39.28 158.894 39.28C157.934 39.28 157.24 39.1067 156.814 38.76C156.387 38.3867 156.174 37.7733 156.174 36.92V22.88ZM161.254 28.72H156.174V14.72C156.414 14.6667 156.747 14.6 157.174 14.52C157.627 14.44 158.08 14.4 158.534 14.4C159.494 14.4 160.187 14.5733 160.614 14.92C161.04 15.24 161.254 15.8533 161.254 16.76V28.72ZM185.297 18.84L185.177 14.72H196.417C196.55 14.9067 196.67 15.1867 196.777 15.56C196.884 15.9067 196.937 16.28 196.937 16.68C196.937 17.3733 196.777 17.9067 196.457 18.28C196.137 18.6533 195.697 18.84 195.137 18.84H185.297ZM188.857 14.72L188.937 18.84H177.697C177.564 18.6267 177.444 18.3467 177.337 18C177.23 17.6533 177.177 17.2667 177.177 16.84C177.177 16.12 177.337 15.5867 177.657 15.24C177.977 14.8933 178.417 14.72 178.977 14.72H188.857ZM184.497 17.76H189.537V38.92C189.324 39 188.99 39.0667 188.537 39.12C188.11 39.2 187.67 39.24 187.217 39.24C186.23 39.24 185.524 39.0667 185.097 38.72C184.697 38.3467 184.497 37.7333 184.497 36.88V17.76ZM200.979 22.96H206.019V38.92C205.806 39 205.486 39.0667 205.059 39.12C204.633 39.2 204.179 39.24 203.699 39.24C202.739 39.24 202.046 39.0667 201.619 38.72C201.193 38.3467 200.979 37.7333 200.979 36.88V22.96ZM206.019 28.8H200.979V14.72C201.193 14.6667 201.526 14.6 201.979 14.52C202.433 14.44 202.886 14.4 203.339 14.4C204.273 14.4 204.953 14.5733 205.379 14.92C205.806 15.24 206.019 15.8533 206.019 16.76V28.8ZM230.668 17.8C230.668 18.3067 230.521 18.76 230.228 19.16C229.961 19.5333 229.641 19.8267 229.268 20.04C228.601 19.5867 227.828 19.1733 226.948 18.8C226.068 18.4267 224.988 18.24 223.708 18.24C222.214 18.24 220.894 18.5733 219.747 19.24C218.628 19.88 217.748 20.8533 217.108 22.16C216.494 23.44 216.188 25.0133 216.188 26.88C216.188 29.7067 216.894 31.8533 218.308 33.32C219.721 34.76 221.601 35.48 223.948 35.48C225.201 35.48 226.281 35.3067 227.188 34.96C228.094 34.6133 228.881 34.2133 229.548 33.76C229.894 33.9733 230.188 34.2933 230.428 34.72C230.694 35.12 230.828 35.5733 230.828 36.08C230.828 36.5333 230.708 36.9467 230.468 37.32C230.254 37.6933 229.868 38.0267 229.308 38.32C228.748 38.64 227.974 38.9333 226.988 39.2C226.028 39.4667 224.814 39.6 223.348 39.6C221.054 39.6 218.961 39.1467 217.068 38.24C215.201 37.3067 213.721 35.9067 212.628 34.04C211.534 32.1467 210.988 29.76 210.988 26.88C210.988 24.08 211.534 21.7333 212.628 19.84C213.721 17.9467 215.188 16.52 217.028 15.56C218.868 14.5733 220.881 14.08 223.068 14.08C224.614 14.08 225.948 14.2533 227.068 14.6C228.214 14.9467 229.094 15.4 229.708 15.96C230.348 16.52 230.668 17.1333 230.668 17.8ZM238.511 26.28L243.751 25.2C246.204 27.7067 248.364 29.9467 250.231 31.92C252.097 33.8667 253.631 35.4267 254.831 36.6C254.831 37.4533 254.551 38.1333 253.991 38.64C253.457 39.12 252.831 39.36 252.111 39.36C251.337 39.36 250.684 39.16 250.151 38.76C249.644 38.36 249.137 37.8933 248.631 37.36L238.511 26.28ZM243.991 28.04L237.911 28L250.271 14.52C251.497 14.5467 252.391 14.8 252.951 15.28C253.511 15.76 253.791 16.3467 253.791 17.04C253.791 17.5467 253.657 18.0267 253.391 18.48C253.151 18.9333 252.751 19.4267 252.191 19.96L243.991 28.04ZM235.471 22.88H240.551V38.96C240.337 39.0133 240.004 39.08 239.551 39.16C239.124 39.24 238.671 39.28 238.191 39.28C237.231 39.28 236.537 39.1067 236.111 38.76C235.684 38.3867 235.471 37.7733 235.471 36.92V22.88ZM240.551 28.72H235.471V14.72C235.711 14.6667 236.044 14.6 236.471 14.52C236.924 14.44 237.377 14.4 237.831 14.4C238.791 14.4 239.484 14.5733 239.911 14.92C240.337 15.24 240.551 15.8533 240.551 16.76V28.72Z" fill="black"/>
<path d="M34.6029 22C34.6029 21.4477 35.0136 21 35.5202 21H39.189C39.6956 21 40.1063 21.4477 40.1063 22V25C40.1063 25.5523 39.6956 26 39.189 26H35.5202C35.0136 26 34.6029 25.5523 34.6029 25V22Z" fill="url(#paint0_linear_25_56)"/>
<path d="M69.2608 54.6426C71.3923 54.6843 73.1724 52.8293 72.9867 50.514C72.2583 41.4337 68.6999 32.8485 62.8418 26.2281C56.086 18.5932 46.825 14.1969 37.0961 14.0065C27.3672 13.816 17.9674 17.8469 10.9645 25.2125C4.89213 31.5993 1.05335 40.0397 0.0264478 49.0856C-0.235403 51.3922 1.48244 53.3157 3.61392 53.3574C5.7454 53.3991 7.47798 51.5402 7.79907 49.2425C8.75068 42.4327 11.7267 36.1058 16.3244 31.2699C21.8538 25.4542 29.2757 22.2715 36.9575 22.4219C44.6392 22.5723 51.9515 26.0435 57.2858 32.0718C61.7214 37.0845 64.4871 43.5239 65.2139 50.3665C65.4591 52.6753 67.1294 54.6009 69.2608 54.6426Z" fill="url(#paint1_linear_25_56)"/>
<path d="M41.9407 51C41.9407 53.7614 39.8874 56 37.3546 56C34.8218 56 32.7685 53.7614 32.7685 51C32.7685 48.2386 34.8218 46 37.3546 46C39.8874 46 41.9407 48.2386 41.9407 51Z" fill="url(#paint2_linear_25_56)"/>
<path d="M34.6029 38C34.6029 37.4477 35.0136 37 35.5202 37H39.189C39.6956 37 40.1063 37.4477 40.1063 38V50C40.1063 50.5523 39.6956 51 39.189 51H35.5202C35.0136 51 34.6029 50.5523 34.6029 50V38Z" fill="url(#paint3_linear_25_56)"/>
<path d="M12.3751 35.2391C11.987 34.8841 11.9364 34.2533 12.262 33.8302L14.6203 30.766C14.946 30.343 15.5245 30.2878 15.9126 30.6428L18.0204 32.5712C18.4085 32.9262 18.4591 33.5569 18.1335 33.98L15.7752 37.0442C15.4496 37.4672 14.871 37.5224 14.483 37.1674L12.3751 35.2391Z" fill="url(#paint4_linear_25_56)"/>
<path d="M56.675 30.6428C57.0631 30.2878 57.6416 30.343 57.9673 30.766L60.3256 33.8302C60.6512 34.2533 60.6006 34.8841 60.2125 35.2391L58.1046 37.1674C57.7166 37.5224 57.138 37.4672 56.8124 37.0442L54.4541 33.98C54.1285 33.5569 54.1791 32.9262 54.5672 32.5712L56.675 30.6428Z" fill="url(#paint5_linear_25_56)"/>
<line x1="85.5" x2="85.5" y2="75" stroke="black"/>
<defs>
<linearGradient id="paint0_linear_25_56" x1="-3.7146" y1="34.3967" x2="69.2854" y2="34.3967" gradientUnits="userSpaceOnUse">
<stop offset="0.015" stop-color="#1A237E"/>
<stop offset="1" stop-color="#03A9F4"/>
</linearGradient>
<linearGradient id="paint1_linear_25_56" x1="-3.7146" y1="34.3967" x2="69.2854" y2="34.3967" gradientUnits="userSpaceOnUse">
<stop offset="0.015" stop-color="#1A237E"/>
<stop offset="1" stop-color="#03A9F4"/>
</linearGradient>
<linearGradient id="paint2_linear_25_56" x1="-3.7146" y1="34.3967" x2="69.2854" y2="34.3967" gradientUnits="userSpaceOnUse">
<stop offset="0.015" stop-color="#1A237E"/>
<stop offset="1" stop-color="#03A9F4"/>
</linearGradient>
<linearGradient id="paint3_linear_25_56" x1="-3.7146" y1="34.3967" x2="69.2854" y2="34.3967" gradientUnits="userSpaceOnUse">
<stop offset="0.015" stop-color="#1A237E"/>
<stop offset="1" stop-color="#03A9F4"/>
</linearGradient>
<linearGradient id="paint4_linear_25_56" x1="-3.7146" y1="34.3967" x2="69.2854" y2="34.3967" gradientUnits="userSpaceOnUse">
<stop offset="0.015" stop-color="#1A237E"/>
<stop offset="1" stop-color="#03A9F4"/>
</linearGradient>
<linearGradient id="paint5_linear_25_56" x1="-3.7146" y1="34.3967" x2="69.2854" y2="34.3967" gradientUnits="userSpaceOnUse">
<stop offset="0.015" stop-color="#1A237E"/>
<stop offset="1" stop-color="#03A9F4"/>
</linearGradient>
</defs>
</svg>
