<svg width="75" height="75" viewBox="0 0 75 75" fill="none" xmlns="http://www.w3.org/2000/svg">
<path d="M75 37.5C75 58.2107 58.2107 75 37.5 75C16.7893 75 0 58.2107 0 37.5C0 16.7893 16.7893 0 37.5 0C58.2107 0 75 16.7893 75 37.5Z" fill="url(#paint0_linear_127_21)"/>
<path d="M50.9259 21.4527C50.9259 29.2243 44.7076 35.5244 37.037 35.5244C29.3664 35.5244 23.1481 29.2243 23.1481 21.4527C23.1481 13.6812 29.3664 7.38109 37.037 7.38109C44.7076 7.38109 50.9259 13.6812 50.9259 21.4527Z" fill="white"/>
<path d="M15.398 59.6037C15.5489 53.862 17.9099 48.4033 21.9855 44.3734C26.0611 40.3436 31.5343 38.0559 37.2564 37.9906C42.9784 37.9253 48.5042 40.0875 52.6739 44.0234C56.8437 47.9592 59.3331 53.3626 59.6196 59.0993L37.5188 60.2003L15.398 59.6037Z" fill="white"/>
<defs>
<linearGradient id="paint0_linear_127_21" x1="-3.81637" y1="36.4226" x2="71.1836" y2="36.4226" gradientUnits="userSpaceOnUse">
<stop offset="0.015" stop-color="#1A237E"/>
<stop offset="1" stop-color="#03A9F4"/>
</linearGradient>
</defs>
</svg>
